<?xml version="1.0" standalone="no"?><!DOCTYPE svg PUBLIC "-//W3C//DTD SVG 1.1//EN" "http://www.w3.org/Graphics/SVG/1.1/DTD/svg11.dtd"><svg class="icon" width="200px" height="200.00px" viewBox="0 0 1024 1024" version="1.1" xmlns="http://www.w3.org/2000/svg"><path d="M588.3 882c0 42.1-34.2 76.3-76.3 76.3s-76.3-34.2-76.3-76.3M512 203c-25.2 0-45.8-20.6-45.8-45.8v-45.8c0-25.2 20.6-45.8 45.8-45.8 25.2 0 45.8 20.6 45.8 45.8v45.8c0 25.2-20.6 45.8-45.8 45.8z" fill="#686868" /><path d="M420.5 541.1c-18.2 0-32.9-14.7-32.9-32.9V370.9c0-18.2 14.7-32.9 32.9-32.9s32.9 14.7 32.9 32.9v137.3c-0.1 18.2-14.8 32.9-32.9 32.9z" fill="#2BA8FC" /><path d="M792 853.9H232c-29.8 0-56.4-15.5-71.1-41.4-14.7-25.9-14.3-56.7 1-82.2l1.6-2.4 56.2-77.7V431.9c0-161.2 131.1-292.3 292.3-292.3 161.2 0 292.3 131.1 292.3 292.3v218.2l57.8 80.1c15.3 25.6 15.7 56.3 1 82.2-14.7 26-41.3 41.5-71.1 41.5zM217.8 765c-3.5 6.8-1 12.8 0.3 15.1 1.4 2.4 5.5 8.1 13.8 8.1H792c8.4 0 12.5-5.6 13.8-8.1 1.3-2.3 3.9-8.3 0.3-15.1l-56-77.3c-7.7-10.6-11.7-23.1-11.7-36.2V431.9c0-124.9-101.6-226.5-226.5-226.5S285.4 307 285.4 431.9v219.5c0 13-4 25.5-11.7 36.1L217.8 765z" fill="#686868" /></svg>