<?xml version="1.0" standalone="no"?><!DOCTYPE svg PUBLIC "-//W3C//DTD SVG 1.1//EN" "http://www.w3.org/Graphics/SVG/1.1/DTD/svg11.dtd"><svg class="icon" width="200px" height="200.00px" viewBox="0 0 1024 1024" version="1.1" xmlns="http://www.w3.org/2000/svg"><path d="M746.1 869.8H277.9C177.6 869.8 96 788.2 96 687.9V336.1c0-100.3 81.6-181.9 181.9-181.9h468.3c100.3 0 181.9 81.6 181.9 181.9v351.8c-0.1 100.3-81.7 181.9-182 181.9z m-468.2-647c-62.4 0-113.2 50.8-113.2 113.3v351.8c0 62.4 50.8 113.2 113.2 113.2h468.3c62.4 0 113.2-50.8 113.2-113.2V336.1c0-62.5-50.8-113.3-113.2-113.3H277.9z" fill="#686868" /><path d="M376.2 520.4c-61.7 0-111.9-50.2-111.9-111.9s50.2-111.9 111.9-111.9 111.9 50.2 111.9 111.9-50.2 111.9-111.9 111.9z m0-155.2c-23.9 0-43.3 19.4-43.3 43.3s19.4 43.3 43.3 43.3 43.3-19.4 43.3-43.3-19.5-43.3-43.3-43.3z" fill="#2BA8FC" /><path d="M702.1 580m-55.5 0a55.5 55.5 0 1 0 111 0 55.5 55.5 0 1 0-111 0Z" fill="#2BA8FC" /></svg>