<?xml version="1.0" standalone="no"?><!DOCTYPE svg PUBLIC "-//W3C//DTD SVG 1.1//EN" "http://www.w3.org/Graphics/SVG/1.1/DTD/svg11.dtd"><svg class="icon" width="200px" height="200.00px" viewBox="0 0 1024 1024" version="1.1" xmlns="http://www.w3.org/2000/svg"><path d="M617.4 888.1H216.7c-83.8 0-152-68.2-152-152V477.8c0-188.5 153.4-341.9 341.9-341.9h210.9c188.5 0 341.9 153.4 341.9 341.9v68.4c-0.1 188.5-153.4 341.9-342 341.9zM406.6 204.3C255.8 204.3 133 327 133 477.8V736c0 46.1 37.5 83.7 83.7 83.7h400.7C768.2 819.7 891 697 891 546.2v-68.4c0-150.8-122.7-273.5-273.5-273.5H406.6z" fill="#686868" /><path d="M412.3 617.4c-18.9 0-34.2-15.3-34.2-34.2V440.8c0-18.9 15.3-34.2 34.2-34.2s34.2 15.3 34.2 34.2v142.5c0 18.8-15.3 34.1-34.2 34.1zM597.5 674.4c-18.9 0-34.2-15.3-34.2-34.2V440.8c0-18.9 15.3-34.2 34.2-34.2s34.2 15.3 34.2 34.2v199.4c0 18.9-15.3 34.2-34.2 34.2z" fill="#2BA8FC" /></svg>