<?xml version="1.0" standalone="no"?><!DOCTYPE svg PUBLIC "-//W3C//DTD SVG 1.1//EN" "http://www.w3.org/Graphics/SVG/1.1/DTD/svg11.dtd"><svg class="icon" width="200px" height="200.00px" viewBox="0 0 1024 1024" version="1.1" xmlns="http://www.w3.org/2000/svg"><path d="M512 960.7C264.6 960.7 63.3 759.4 63.3 512S264.6 63.3 512 63.3 960.7 264.6 960.7 512 759.4 960.7 512 960.7z m0-822.6c-206.2 0-373.9 167.7-373.9 373.9S305.8 885.9 512 885.9 885.9 718.2 885.9 512 718.2 138.1 512 138.1z" fill="#686868" /><path d="M307 680.5l93.4-250.1c5.1-13.8 16-24.7 29.8-29.8l250.1-93.5c22.7-8.5 44.9 13.7 36.4 36.4l-93.4 250.1c-5.1 13.8-16 24.7-29.8 29.8l-250.1 93.5c-22.7 8.5-44.9-13.6-36.4-36.4z m159.8-213.7l-54 144.4 144.4-54 54-144.4-144.4 54z m119.5 119.5h0.2-0.2z" fill="#2BA8FC" /></svg>