<?xml version="1.0" standalone="no"?><!DOCTYPE svg PUBLIC "-//W3C//DTD SVG 1.1//EN" "http://www.w3.org/Graphics/SVG/1.1/DTD/svg11.dtd"><svg class="icon" width="200px" height="200.00px" viewBox="0 0 1024 1024" version="1.1" xmlns="http://www.w3.org/2000/svg"><path d="M791.5 376.2C716.2 376.2 655 315 655 239.7s61.2-136.5 136.5-136.5S928 164.4 928 239.7s-61.2 136.5-136.5 136.5z m0-200.7c-35.4 0-64.2 28.8-64.2 64.2s28.8 64.2 64.2 64.2c35.4 0 64.2-28.8 64.2-64.2s-28.8-64.2-64.2-64.2z" fill="#686868" /><path d="M361.5 505.2c-13.3 0-26.1-7.3-32.4-20-8.9-17.9-1.7-39.6 16.2-48.5l344-172c17.9-8.9 39.6-1.7 48.5 16.2 8.9 17.9 1.7 39.6-16.2 48.5l-344 172c-5.1 2.5-10.6 3.8-16.1 3.8zM576.5 777.5c-5.4 0-11-1.2-16.1-3.8L359.7 673.4c-17.9-8.9-25.1-30.7-16.2-48.5 8.9-17.8 30.6-25.1 48.5-16.2L592.7 709c17.9 8.9 25.1 30.7 16.2 48.5-6.4 12.7-19.1 20-32.4 20z" fill="#686868" /><path d="M261.2 720.2C170.1 720.2 96 646.1 96 555s74.1-165.2 165.2-165.2S426.4 463.9 426.4 555s-74.1 165.2-165.2 165.2z m0-258c-51.2 0-92.8 41.6-92.8 92.8s41.6 92.8 92.8 92.8S354 606.2 354 555s-41.6-92.8-92.8-92.8z" fill="#2BA8FC" /><path d="M676.8 920.8c-67.4 0-122.2-54.8-122.2-122.2s54.8-122.2 122.2-122.2S799 731.3 799 798.7s-54.8 122.1-122.2 122.1z m0-172c-27.5 0-49.8 22.3-49.8 49.8s22.3 49.8 49.8 49.8 49.8-22.3 49.8-49.8-22.3-49.8-49.8-49.8z" fill="#686868" /></svg>