<?xml version="1.0" standalone="no"?><!DOCTYPE svg PUBLIC "-//W3C//DTD SVG 1.1//EN" "http://www.w3.org/Graphics/SVG/1.1/DTD/svg11.dtd"><svg class="icon" width="200px" height="200.00px" viewBox="0 0 1024 1024" version="1.1" xmlns="http://www.w3.org/2000/svg"><path d="M777.9 899.5H246.1c-38.5 0-72.4-26-82.4-63.3l-97.8-391c-8.5-32 2.1-65.4 27.9-86.9s60.7-26 91-11.7l117.8 55.5c7 3.3 15.4 0.6 19.2-6.2L437 169.3c16-28.5 43.7-44.9 75-44.9s59.2 16.3 74.4 43.6l116.2 228.3c3.9 6.5 12.1 9 19 5.7l117.8-55.5c30.3-14.4 65.2-9.8 91 11.7 25.8 21.5 36.4 55.1 27.7 87.4l-97.7 390.2c-10.1 37.8-44 63.7-82.5 63.7zM148.2 408.7c-4.2 0-7.4 2.1-9.3 3.6-2.7 2.3-6.9 7.2-4.9 15.2l98 391.2c1.6 5.9 7.4 10.5 14.1 10.5h531.6c6.7 0 12.6-4.5 14.2-11L889.8 428c2.3-8.5-1.9-13.5-4.6-15.8-2.7-2.3-8.3-5.5-15.8-2.1l-117.8 55.6c-40.4 19-88.9 3.5-110.8-35.5l-0.6-1.2-115.9-227.8c-3-5.3-9.1-6.4-12.3-6.4-3.2 0-9.3 1-13 7.6L383.9 429.1c-22.5 40.2-71.1 55.7-111.4 36.7l-117.8-55.5c-2.4-1.2-4.5-1.6-6.5-1.6z" fill="#686868" /><path d="M613.3 758.7H410.9c-19.4 0-35.2-15.8-35.2-35.2s15.8-35.2 35.2-35.2h202.5c19.4 0 35.2 15.8 35.2 35.2-0.2 19.4-15.9 35.2-35.3 35.2z" fill="#2BA8FC" /></svg>