<?xml version="1.0" standalone="no"?><!DOCTYPE svg PUBLIC "-//W3C//DTD SVG 1.1//EN" "http://www.w3.org/Graphics/SVG/1.1/DTD/svg11.dtd"><svg class="icon" width="200px" height="200.00px" viewBox="0 0 1024 1024" version="1.1" xmlns="http://www.w3.org/2000/svg"><path d="M130.4 425.6h763.3v68.7H130.4z" fill="#686868" /><path d="M745.9 199.8h-4.6v68.7h4.6c62.5 0 113.4 50.9 113.4 113.4v340.6c0 62.5-50.9 113.4-113.4 113.4H278.1c-62.5 0-113.4-50.9-113.4-113.4V382c0-62.5 50.9-113.4 113.4-113.4h4.6v-68.7h-4.6C177.7 199.8 96 281.5 96 382v340.6c0 100.4 81.7 182.1 182.1 182.1h467.8C846.3 904.7 928 823 928 722.6V382c0-100.5-81.7-182.2-182.1-182.2z" fill="#686868" /><path d="M436 199.8h152v68.7H436z" fill="#686868" /><path d="M359.3 349c-42.3 0-76.6-34.4-76.6-76.7V196c0-42.3 34.4-76.7 76.6-76.7 42.3 0 76.7 34.4 76.7 76.7v76.3c0 42.3-34.4 76.7-76.7 76.7z m0-178.1c-13.8 0-25.1 11.3-25.1 25.1v76.3c0 13.8 11.3 25.1 25.1 25.1 13.9 0 25.1-11.3 25.1-25.1V196c0.1-13.8-11.2-25.1-25.1-25.1zM664.7 349c-42.3 0-76.7-34.4-76.7-76.7V196c0-42.3 34.4-76.7 76.7-76.7 42.3 0 76.6 34.4 76.6 76.7v76.3c0 42.3-34.4 76.7-76.6 76.7z m0-178.1c-13.9 0-25.1 11.3-25.1 25.1v76.3c0 13.8 11.3 25.1 25.1 25.1s25.1-11.3 25.1-25.1V196c0-13.8-11.3-25.1-25.1-25.1z" fill="#2BA8FC" /></svg>