<?xml version="1.0" standalone="no"?><!DOCTYPE svg PUBLIC "-//W3C//DTD SVG 1.1//EN" "http://www.w3.org/Graphics/SVG/1.1/DTD/svg11.dtd"><svg class="icon" width="200px" height="200.00px" viewBox="0 0 1024 1024" version="1.1" xmlns="http://www.w3.org/2000/svg"><path d="M791.87 837.84H232.13c-88.65 0-160.76-72.12-160.76-160.76V346.93c0-88.65 72.12-160.76 160.76-160.76h559.74c88.65 0 160.76 72.12 160.76 160.76v330.14c0 88.65-72.12 160.77-160.76 160.77zM232.13 248.16a98.88 98.88 0 0 0-98.76 98.76v330.15a98.88 98.88 0 0 0 98.76 98.76h559.74a98.88 98.88 0 0 0 98.76-98.76V346.93a98.88 98.88 0 0 0-98.76-98.76z" fill="#686868" /><path d="M512 563.84a31 31 0 0 1-16.75-4.92L227.58 387a31 31 0 1 1 33.5-52.17L512 496l250.92-161.14a31 31 0 0 1 33.5 52.14L528.75 558.93a31 31 0 0 1-16.75 4.91z" fill="#2BA8FC" /></svg>